<svg width="512" height="512" viewBox="0 0 512 512" fill="none" xmlns="http://www.w3.org/2000/svg">
<rect x="251" y="224" width="100" height="100" fill="#F5F5EE"/>
<rect width="512" height="512" fill="#E53935"/>
<path d="M252.36 353.608C236.488 353.608 221.64 349.896 207.816 342.472C193.992 334.792 182.856 323.528 174.408 308.68C165.96 293.576 161.736 275.016 161.736 253C161.736 230.984 165.96 212.552 174.408 197.704C182.856 182.6 193.992 171.336 207.816 163.912C221.64 156.232 236.488 152.392 252.36 152.392C268.232 152.392 283.08 156.232 296.904 163.912C310.728 171.336 321.864 182.6 330.312 197.704C338.76 212.552 342.984 230.984 342.984 253C342.984 275.016 338.76 293.576 330.312 308.68C321.864 323.528 310.728 334.792 296.904 342.472C283.08 349.896 268.232 353.608 252.36 353.608ZM252.36 324.424C271.56 324.424 286.024 318.152 295.752 305.608C305.736 293.064 310.728 275.528 310.728 253C310.728 230.472 305.736 212.936 295.752 200.392C286.024 187.848 271.56 181.576 252.36 181.576C233.16 181.576 218.568 187.848 208.584 200.392C198.856 212.936 193.992 230.472 193.992 253C193.992 275.528 198.856 293.064 208.584 305.608C218.568 318.152 233.16 324.424 252.36 324.424Z" fill="#F5F5EE"/>
</svg>
